<mxfile host="Electron" modified="2023-08-02T14:05:24.821Z" agent="Mozilla/5.0 (Windows NT 10.0; Win64; x64) AppleWebKit/537.36 (KHTML, like Gecko) draw.io/21.6.5 Chrome/114.0.5735.243 Electron/25.3.1 Safari/537.36" etag="Fs1xWNawOT4TaFyw8jc3" version="21.6.5" type="device">
  <diagram name="Page-1" id="lNdpVFLfJSh90rTv4UrW">
    <mxGraphModel dx="864" dy="495" grid="1" gridSize="10" guides="1" tooltips="1" connect="1" arrows="1" fold="1" page="1" pageScale="1" pageWidth="1169" pageHeight="827" math="0" shadow="0">
      <root>
        <mxCell id="0" />
        <mxCell id="1" parent="0" />
        <mxCell id="fgJSJdpuxcF3Wbqb0ntG-1" value="&lt;u&gt;streetName : String&lt;br&gt;&lt;/u&gt;&quot;S. Crown Street&quot;" style="fontStyle=0;html=1;whiteSpace=wrap;" vertex="1" parent="1">
          <mxGeometry width="140" height="60" as="geometry" />
        </mxCell>
      </root>
    </mxGraphModel>
  </diagram>
</mxfile>
